# xmcd
#
# Track frame offsets: 
#        150
#        19892
#        34279
#        48802
#        61759
#        75409
#        89866
#        103036
#        122311
#        136966
#
# Disc length: 2055 seconds
#
# Revision: 0
# Processed by: cddbd v1.5.2PL0 Copyright (c) Steve Scherf et al.
# Submitted via: ExactAudioCopy v1.0b1
#
DISCID=7908050a
DTITLE=Aaron Watson - Aaron Watson
DYEAR=2000
DGENRE=Country
TTITLE0=Just A Call
TTITLE1=The Way It's Meant to Be
TTITLE2=Heaven Help The Heart
TTITLE3=I'm Going To Texas
TTITLE4=Charlene Gene
TTITLE5=A Country Boy and City Girl
TTITLE6=Beginner's Love
TTITLE7=Other Side of the Moon
TTITLE8=What a Man's Got to Do
TTITLE9=Messing With A Man On A Missio
EXTD=
EXTT0=
EXTT1=
EXTT2=
EXTT3=
EXTT4=
EXTT5=
EXTT6=
EXTT7=
EXTT8=
EXTT9=
PLAYORDER=
